# xmcd
#
# Track frame offsets: 
#        150
#        18612
#        40057
#        59672
#        82416
#        102107
#        116187
#        134867
#        156545
#        175300
#        193842
#        209742
#        220109
#
# Disc length: 3210 seconds
#
# Revision: 3
# Processed by: cddbd v1.5.2PL0 Copyright (c) Steve Scherf et al.
# Submitted via: ExactAudioCopy v0.95b3
#
DISCID=d70c880d
DTITLE=Sandy Dillon - Nobody's Sweetheart
DYEAR=2003
DGENRE=Pop
TTITLE0=Feel the Way I Do
TTITLE1=It Must Be Love
TTITLE2=The Stain
TTITLE3=Shoreline
TTITLE4=Let's Go for a Drive
TTITLE5=A Girl Like Me
TTITLE6=Honeymoonee
TTITLE7=The Silent You
TTITLE8=Nobody's Sweetheart
TTITLE9=Now You're Mine
TTITLE10=Can't Make You Stay
TTITLE11=Don't Blame You Now
TTITLE12=Mamma's Backyard
EXTD=YEAR: 2003
EXTT0=
EXTT1=
EXTT2=
EXTT3=
EXTT4=
EXTT5=
EXTT6=
EXTT7=
EXTT8=
EXTT9=
EXTT10=
EXTT11=
EXTT12=
PLAYORDER=
